#N canvas 25 315 738 540 12;
#X obj 23 61 tgl 15 0 empty empty empty 17 7 0 10 -262144 -1 -1 1 1
;
#X msg 27 110 \; pd dsp \$1;
#X obj 333 503 dac~;
#X obj 338 447 *~;
#X obj 225 368 osc~;
#X floatatom 174 95 5 0 0 0 - - -;
#X msg 165 196 0;
#X msg 228 198 1;
#X obj 225 247 + 0;
#X obj 354 129 loadbang;
#X floatatom 352 222 5 0 0 0 - - -;
#X text 231 93 <- integer value is pulled from Unity;
#X msg 355 178 200;
#X floatatom 182 293 5 0 0 0 - - -;
#X text 234 295 <- frequency value set;
#X text 260 250 <- adds bang value;
#X text 403 177 add custom frequency pitch;
#X obj 173 131 select 0 1;
#X text 91 198 Grounded;
#X text 264 195 Jumping;
#X obj 179 42 r oscstrig;
#X floatatom 522 306 5 0 0 0 - - -;
#X obj 512 346 osc~;
#X floatatom 566 349 5 0 0 0 - - -;
#X text 381 449 Combines waveforms;
#X obj 532 401 *~;
#X text 564 305 amplitude speed;
#X text 515 274 Waveform 2;
#X text 178 15 Waveform 1;
#X connect 0 0 1 0;
#X connect 3 0 2 0;
#X connect 3 0 2 1;
#X connect 4 0 3 0;
#X connect 5 0 17 0;
#X connect 6 0 13 0;
#X connect 7 0 8 0;
#X connect 8 0 13 0;
#X connect 9 0 12 0;
#X connect 10 0 8 1;
#X connect 12 0 10 0;
#X connect 13 0 4 0;
#X connect 17 0 6 0;
#X connect 17 1 7 0;
#X connect 20 0 5 0;
#X connect 21 0 22 0;
#X connect 22 0 25 0;
#X connect 23 0 25 1;
#X connect 25 0 3 1;
