#N canvas 457 162 1146 564 10;
#X text 164 48 1 Set IP Address : network address;
#X text 164 68 2 Set Ports (sending and listening);
#X text 164 87 3 Set OSC Addresses (routing osc data;
#X text 155 26 Key Settings;
#N canvas 1183 450 781 518 oscReceive 1;
#X obj 55 184 netreceive -u -b;
#X msg 78 143 listen 0;
#X text 152 143 stop listening;
#X text 64 58 packets from network;
#X text 173 177 UDP packets \, binary output, f 13;
#X obj 45 314 print;
#X obj 45 272 oscparse;
#X text 150 114 listen on port 8000;
#X obj 177 269 oscparse;
#X obj 177 293 list trim;
#X text 241 267 Parse the OSC message;
#X obj 177 319 route unity;
#X msg 66 115 listen 8000;
#X obj 66 84 loadbang;
#X obj 189 389 route speed;
#X obj 188 416 s speed;
#X obj 280 394 route collectable;
#X obj 279 448 s osccollect;
#X obj 281 419 % 5;
#X obj 406 398 route initialize;
#X obj 406 432 s initialize;
#X obj 524 395 route impact;
#X obj 524 429 s impact;
#X obj 56 397 route groundSpeed;
#X obj 56 420 s groundSpeed;
#X connect 0 0 6 0;
#X connect 0 0 8 0;
#X connect 1 0 0 0;
#X connect 6 0 5 0;
#X connect 8 0 9 0;
#X connect 9 0 11 0;
#X connect 11 0 14 0;
#X connect 11 0 16 0;
#X connect 11 0 19 0;
#X connect 11 0 21 0;
#X connect 11 0 23 0;
#X connect 12 0 0 0;
#X connect 13 0 12 0;
#X connect 14 0 15 0;
#X connect 16 0 18 0;
#X connect 18 0 17 0;
#X connect 19 0 20 0;
#X connect 21 0 22 0;
#X connect 23 0 24 0;
#X restore 43 116 pd oscReceive;
#X obj 47 36 tgl 15 0 empty empty empty 17 7 0 10 -262144 -1 -1 0 1
;
#X msg 47 61 \; pd dsp \$1;
#N canvas 2042 41 1083 664 music 1;
#X obj 52 888 osc~;
#X obj 56 832 mtof;
#X obj 55 1177 dac~;
#X floatatom 57 800 5 0 0 0 - - -;
#X obj 62 1010 *~;
#X obj 181 810 vsl 15 128 0 0.1 0 0 empty empty empty 0 -9 0 10 -262144
-1 -1 0 1;
#X obj 56 944 *~;
#X obj 115 848 mtof;
#X floatatom 116 816 5 0 0 0 - - -;
#X obj 107 885 osc~;
#X obj 347 995 osc~;
#X obj 351 939 mtof;
#X obj 325 1243 dac~;
#X floatatom 357 901 5 0 0 0 - - -;
#X obj 351 1086 *~;
#X obj 492 908 vsl 15 128 0 0.1 0 0 empty empty empty 0 -9 0 10 -262144
-1 -1 0 1;
#X obj 351 1051 *~;
#X obj 410 955 mtof;
#X floatatom 411 923 5 0 0 0 - - -;
#X obj 402 992 osc~;
#X obj 118 176 + 1;
#X obj 74 145 metro 250;
#X obj 99 342 % 10;
#X obj 100 370 select 0 1 2 3 4 5 6 7 8 9;
#X obj 61 1120 *~;
#X obj 74 112 tgl 15 0 empty empty empty 17 7 0 10 -262144 -1 -1 1
1;
#X obj 349 1194 *~;
#X msg 27 94 0;
#X obj 78 1096 vline~;
#X msg 78 1070 1 20 \, 0 20 200;
#X obj 365 1174 vline~;
#X msg 365 1148 1 20 \, 0 20 200;
#X obj 814 980 osc~;
#X obj 818 924 mtof;
#X obj 798 1272 dac~;
#X floatatom 817 874 5 0 0 0 - - -;
#X obj 824 1102 *~;
#X obj 959 893 vsl 15 128 0 0.1 0 0 empty empty empty 0 -9 0 10 -262144
-1 -1 0 1;
#X obj 877 940 mtof;
#X floatatom 878 908 5 0 0 0 - - -;
#X obj 822 1223 *~;
#X obj 837 1199 vline~;
#X msg 837 1178 1 20 \, 0 20 200;
#X obj 201 460 s bass;
#X obj 97 463 s chords;
#X obj 838 1158 r bass;
#X obj 78 1049 r chords;
#X obj 366 1126 r chords;
#X obj 75 224 s beatCount;
#X obj 98 320 r beatCount;
#X obj 702 713 r beatCount;
#X obj 701 736 % 20;
#X floatatom 76 201 5 0 0 0 - - -;
#X obj 76 175 float;
#X msg 660 833 44;
#X obj 707 785 select 0 3 6 9 12 15 18;
#X msg 712 835 49;
#X msg 752 833 49;
#X floatatom 703 759 5 0 0 0 - - -;
#X msg 791 829 51;
#X msg 832 833 56;
#X msg 312 803 68;
#X msg 347 803 72;
#X msg 382 804 73;
#X msg 413 804 75;
#X msg 451 806 80;
#X obj 336 761 select 0 1 2 3 4;
#X obj 343 721 r osccollect;
#X obj 625 797 loadbang;
#X obj 101 713 loadbang;
#X obj 434 852 loadbang;
#X msg 424 877 -10;
#X msg 140 773 87;
#X msg 65 760 68;
#X obj 859 991 phasor~;
#X obj 818 1036 +~;
#X obj 875 877 + 14;
#X obj 34 9 r initialize;
#X text 56 689 drone;
#X text 311 686 cyclical melody progressed by collecting objects;
#X obj 492 882 r musicVolume;
#X obj 181 786 r musicVolume;
#X obj 959 858 r musicVolume;
#X text 10 463 chord rhythm;
#X text 249 460 bass rhythm;
#X text 138 346 one bar of 5/4 in eigth notes;
#X text 21 28 Master timing controler;
#X text 144 169 apparently this is the only way to get an incrementing
counter without libraries??;
#X text 743 763 repeating bass pattern that lasts two bars;
#X text 683 685 bass;
#X text 839 1140 envelope;
#X text 367 1108 envelope;
#X text 77 1029 envelope;
#X obj 32 67 bng 15 250 50 0 empty empty empty 17 7 0 10 -262144 -1
-1;
#X obj 119 47 r stopAll;
#X msg 119 67 0;
#X obj 280 82 r speed;
#X obj 232 36 loadbang;
#X floatatom 382 112 5 0 0 0 - - -;
#X floatatom 229 116 5 0 0 0 - - -;
#X obj 281 126 *, f 4;
#X obj 229 142 -;
#X obj 281 103 bng 15 250 50 0 empty empty empty 17 7 0 10 -262144
-1 -1;
#X msg 229 95 300, f 4;
#X msg 381 92 50, f 4;
#X text 20 627 -----------------------------------------------------------
;
#X text 23 615 Voices below;
#X text 228 16 tempo control;
#X connect 0 0 6 0;
#X connect 1 0 0 0;
#X connect 3 0 1 0;
#X connect 4 0 24 0;
#X connect 5 0 4 1;
#X connect 6 0 4 0;
#X connect 7 0 9 0;
#X connect 8 0 7 0;
#X connect 9 0 6 1;
#X connect 10 0 16 0;
#X connect 11 0 10 0;
#X connect 13 0 11 0;
#X connect 14 0 26 0;
#X connect 15 0 14 1;
#X connect 16 0 14 0;
#X connect 17 0 19 0;
#X connect 18 0 17 0;
#X connect 19 0 16 1;
#X connect 20 0 53 1;
#X connect 21 0 53 0;
#X connect 22 0 23 0;
#X connect 23 0 44 0;
#X connect 23 0 43 0;
#X connect 23 1 44 0;
#X connect 23 2 44 0;
#X connect 23 3 44 0;
#X connect 23 3 43 0;
#X connect 23 4 44 0;
#X connect 23 5 44 0;
#X connect 23 6 44 0;
#X connect 23 6 43 0;
#X connect 23 7 44 0;
#X connect 23 8 44 0;
#X connect 23 8 43 0;
#X connect 23 9 44 0;
#X connect 24 0 2 0;
#X connect 24 0 2 1;
#X connect 25 0 21 0;
#X connect 26 0 12 0;
#X connect 26 0 12 1;
#X connect 27 0 25 0;
#X connect 27 0 53 0;
#X connect 28 0 24 1;
#X connect 29 0 28 0;
#X connect 30 0 26 1;
#X connect 31 0 30 0;
#X connect 32 0 75 0;
#X connect 33 0 32 0;
#X connect 35 0 33 0;
#X connect 35 0 76 0;
#X connect 36 0 40 0;
#X connect 37 0 36 1;
#X connect 38 0 74 0;
#X connect 39 0 38 0;
#X connect 40 0 34 0;
#X connect 40 0 34 1;
#X connect 41 0 40 1;
#X connect 42 0 41 0;
#X connect 45 0 42 0;
#X connect 46 0 29 0;
#X connect 47 0 31 0;
#X connect 49 0 22 0;
#X connect 50 0 51 0;
#X connect 51 0 58 0;
#X connect 52 0 48 0;
#X connect 53 0 20 0;
#X connect 53 0 52 0;
#X connect 54 0 35 0;
#X connect 55 0 54 0;
#X connect 55 1 56 0;
#X connect 55 2 57 0;
#X connect 55 3 59 0;
#X connect 55 6 60 0;
#X connect 56 0 35 0;
#X connect 57 0 35 0;
#X connect 58 0 55 0;
#X connect 59 0 35 0;
#X connect 60 0 35 0;
#X connect 61 0 13 0;
#X connect 62 0 13 0;
#X connect 63 0 13 0;
#X connect 64 0 13 0;
#X connect 65 0 13 0;
#X connect 66 0 61 0;
#X connect 66 1 62 0;
#X connect 66 2 63 0;
#X connect 66 3 64 0;
#X connect 66 4 65 0;
#X connect 67 0 66 0;
#X connect 68 0 54 0;
#X connect 69 0 72 0;
#X connect 69 0 73 0;
#X connect 70 0 61 0;
#X connect 70 0 71 0;
#X connect 71 0 18 0;
#X connect 72 0 8 0;
#X connect 73 0 3 0;
#X connect 74 0 75 1;
#X connect 75 0 36 0;
#X connect 76 0 39 0;
#X connect 77 0 93 0;
#X connect 80 0 15 0;
#X connect 81 0 5 0;
#X connect 82 0 37 0;
#X connect 93 0 27 0;
#X connect 93 0 25 0;
#X connect 94 0 95 0;
#X connect 95 0 25 0;
#X connect 96 0 102 0;
#X connect 96 0 100 0;
#X connect 97 0 103 0;
#X connect 97 0 104 0;
#X connect 98 0 100 1;
#X connect 99 0 101 0;
#X connect 100 0 101 1;
#X connect 101 0 21 1;
#X connect 102 0 100 0;
#X connect 102 0 99 0;
#X connect 103 0 99 0;
#X connect 104 0 98 0;
#X restore 603 47 pd music;
#X obj 622 79 vsl 15 128 0 1 0 0 empty empty empty 0 -9 0 10 -262144
-1 -1 0 1;
#X obj 618 275 s musicVolume;
#X obj 528 117 vsl 15 128 0 1 0 0 empty empty empty 0 -9 0 10 -262144
-1 -1 0 1;
#X text 495 92 master volume;
#X obj 719 275 s collisionVolume;
#X obj 837 274 s rollVolume;
#X obj 928 276 s collectVolume;
#X obj 44 154 bng 15 250 50 0 empty empty empty 17 7 0 10 -262144 -1
-1;
#X obj 44 174 s stopAll;
#X obj 619 249 *;
#X obj 620 223 bng 15 250 50 0 empty empty empty 17 7 0 10 -262144
-1 -1;
#X obj 723 77 vsl 15 128 0 1 0 0 empty empty empty 0 -9 0 10 -262144
-1 -1 0 1;
#X obj 720 247 *;
#X obj 721 221 bng 15 250 50 0 empty empty empty 17 7 0 10 -262144
-1 -1;
#X obj 840 77 vsl 15 128 0 1 0 0 empty empty empty 0 -9 0 10 -262144
-1 -1 0 1;
#X obj 837 247 *;
#X obj 838 221 bng 15 250 50 0 empty empty empty 17 7 0 10 -262144
-1 -1;
#X obj 932 76 vsl 15 128 0 1 0 0 empty empty empty 0 -9 0 10 -262144
-1 -1 0 1;
#X obj 929 246 *;
#X obj 930 220 bng 15 250 50 0 empty empty empty 17 7 0 10 -262144
-1 -1;
#X text 499 4 Volume settings;
#N canvas 723 187 1051 726 landing 1;
#X obj 48 618 dac~;
#X obj 410 200 osc~;
#X floatatom 409 164 5 0 0 0 - - -;
#X floatatom 202 174 5 0 0 0 - - -;
#X obj 192 214 osc~;
#X obj 91 420 vsl 15 128 0 1 0 0 empty empty empty 0 -9 0 10 -262144
-1 -1 0 1;
#X obj 51 547 *~;
#X obj 93 390 r collisionVolume;
#X obj 57 366 *~;
#X obj 146 347 vline~;
#X obj 88 130 noise~;
#X obj 104 249 *~;
#X floatatom 146 133 5 0 0 0 - - -;
#X obj 52 567 *~;
#X obj 119 197 *~;
#X msg 87 102 seed 10;
#X msg 154 296 1 10 \, 0.2 10 50 \, 0 50 100;
#X obj 404 265 *~;
#X obj 393 602 dac~;
#X obj 449 399 vsl 15 128 0 1 0 0 empty empty empty 0 -9 0 10 -262144
-1 -1 0 1;
#X obj 405 522 *~;
#X obj 448 341 r collisionVolume;
#X obj 448 368 * 1.2;
#X text 64 73 mix noise with osc;
#X msg 411 136 -42;
#X obj 411 105 loadbang;
#X obj 479 241 vline~;
#X msg 487 190 1 10 \, 0.2 10 50 \, 0 50 100;
#X obj 161 253 r impact;
#X obj 491 137 r impact;
#X text 397 29 bass layer;
#X msg 194 80 10;
#X msg 227 129 -25;
#X obj 203 53 loadbang;
#X text 12 9 impact sound;
#X text 66 29 noise layer;
#X connect 1 0 17 0;
#X connect 2 0 1 0;
#X connect 3 0 4 0;
#X connect 4 0 11 1;
#X connect 5 0 6 1;
#X connect 5 0 13 1;
#X connect 6 0 13 0;
#X connect 7 0 5 0;
#X connect 8 0 6 0;
#X connect 9 0 8 1;
#X connect 10 0 14 0;
#X connect 11 0 8 0;
#X connect 12 0 14 1;
#X connect 13 0 0 0;
#X connect 13 0 0 1;
#X connect 14 0 11 0;
#X connect 15 0 10 0;
#X connect 16 0 9 0;
#X connect 17 0 20 0;
#X connect 19 0 20 1;
#X connect 20 0 18 0;
#X connect 20 0 18 1;
#X connect 21 0 22 0;
#X connect 22 0 19 0;
#X connect 24 0 2 0;
#X connect 25 0 24 0;
#X connect 26 0 17 1;
#X connect 27 0 26 0;
#X connect 28 0 16 0;
#X connect 29 0 27 0;
#X connect 31 0 12 0;
#X connect 32 0 3 0;
#X connect 33 0 31 0;
#X connect 33 0 32 0;
#X restore 699 46 pd landing;
#N canvas 369 447 1195 439 roll 1;
#X obj 482 101 soundfiler;
#X obj 483 45 bng 15 250 50 0 empty empty empty 17 7 0 10 -262144 -1
-1;
#X obj 483 18 loadbang;
#X floatatom 482 125 15 0 0 0 - - -;
#X msg 483 74 read -resize BallRoll.wav soundData;
#N canvas 212 36 450 300 (subpatch) 0;
#X array soundData 134951 float 0;
#X coords 0 1 134950 -1 300 100 1;
#X restore 479 269 graph;
#X obj 296 227 phasor~;
#X obj 255 322 tabread4~ soundData;
#X obj 248 424 dac~;
#X obj 350 284 *~;
#X obj 105 124 hsl 128 15 0 1 0 0 empty empty empty -2 -8 0 10 -262144
-1 -1 0 1;
#X obj 302 162 expr 44100/$f1;
#X floatatom 39 166 5 0 0 0 - - -;
#X text 5 53 0.326 is normal;
#X msg 23 76 0.326;
#X obj 104 59 r groundSpeed;
#X obj 218 34 r stopAll;
#X msg 218 79 0;
#X obj 269 358 r rollVolume;
#X obj 254 382 *~;
#X connect 0 0 3 0;
#X connect 1 0 4 0;
#X connect 2 0 1 0;
#X connect 3 0 11 0;
#X connect 3 0 9 1;
#X connect 4 0 0 0;
#X connect 6 0 9 0;
#X connect 7 0 19 0;
#X connect 9 0 7 0;
#X connect 10 0 12 0;
#X connect 10 0 6 0;
#X connect 11 0 6 0;
#X connect 14 0 10 0;
#X connect 15 0 10 0;
#X connect 16 0 17 0;
#X connect 17 0 10 0;
#X connect 18 0 19 1;
#X connect 19 0 8 0;
#X connect 19 0 8 1;
#X restore 826 47 pd roll;
#N canvas 436 369 1193 778 collect 1;
#X floatatom 469 396 5 0 0 0 - - -;
#X obj 470 495 *~;
#X obj 219 731 dac~;
#X obj 659 453 vline~;
#X text 701 327 volume control;
#X obj 675 239 vsl 15 128 0 1 0 0 empty empty empty 0 -9 0 10 -262144
-1 -1 0 1;
#X text 50 268 uses a key selector to pick a hert/frequency to play
;
#X text 715 445 using vline to cleanly transition between volume;
#X text 263 728 using dac to convert audio signal to frequency and
hertz that we can hear;
#X text 508 503 multiplying audio signal to the volume value;
#X obj 376 363 bng 15 250 50 0 empty empty empty 17 7 0 10 -262144
-1 -1;
#X obj 428 347 bng 15 250 50 0 empty empty empty 17 7 0 10 -262144
-1 -1;
#X obj 467 335 bng 15 250 50 0 empty empty empty 17 7 0 10 -262144
-1 -1;
#X obj 503 351 bng 15 250 50 0 empty empty empty 17 7 0 10 -262144
-1 -1;
#X obj 544 380 bng 15 250 50 0 empty empty empty 17 7 0 10 -262144
-1 -1;
#X text 119 360 selector object triggers the bangs;
#X text 257 400 selected value gets displayed;
#X obj 185 597 *~;
#X obj 152 537 osc~;
#X msg 151 485 932;
#X obj 230 677 *~;
#X obj 316 688 vline~;
#X floatatom 151 512 5 0 0 0 - - -;
#X obj 150 459 loadbang;
#X obj 470 431 osc~;
#X text 219 596 combining two osc~ to create a form of synthesizing
a unique waveform;
#X text 238 439 it generates music using osc~;
#X text 10 535 another osc~ sound;
#X msg 329 648 1 500 \, 0 500 500;
#X text 379 686 ensures no pop;
#X obj 429 149 r osccollect;
#X floatatom 433 207 5 0 0 0 - - -;
#X text 530 147 gets an input (0-4) from unity thru open sound;
#X obj 666 202 r collectVolume;
#X obj 329 615 r osccollect;
#X obj 215 180 bng 15 250 50 0 empty empty empty 17 7 0 10 -262144
-1 -1;
#X obj 424 271 select 0 1 2 3 4;
#X floatatom 269 307 5 0 0 0 - - -;
#X obj 312 209 bng 15 250 50 0 empty empty empty 17 7 0 10 -262144
-1 -1;
#X msg 354 318 -4;
#X msg 393 316 -8;
#X msg 452 305 100;
#X msg 495 317 300;
#X msg 264 141 4;
#X msg 539 342 125;
#X connect 0 0 24 0;
#X connect 1 0 17 1;
#X connect 3 0 1 1;
#X connect 5 0 3 0;
#X connect 17 0 20 0;
#X connect 18 0 17 0;
#X connect 19 0 22 0;
#X connect 20 0 2 0;
#X connect 20 0 2 1;
#X connect 21 0 20 1;
#X connect 22 0 18 0;
#X connect 23 0 19 0;
#X connect 24 0 1 0;
#X connect 28 0 21 0;
#X connect 30 0 31 0;
#X connect 31 0 36 0;
#X connect 33 0 5 0;
#X connect 34 0 28 0;
#X connect 35 0 28 0;
#X connect 36 0 39 0;
#X connect 36 1 40 0;
#X connect 36 2 41 0;
#X connect 36 3 42 0;
#X connect 36 4 44 0;
#X connect 37 0 0 0;
#X connect 39 0 10 0;
#X connect 39 0 0 0;
#X connect 40 0 11 0;
#X connect 40 0 0 0;
#X connect 41 0 12 0;
#X connect 41 0 0 0;
#X connect 42 0 13 0;
#X connect 42 0 0 0;
#X connect 43 0 35 0;
#X connect 44 0 14 0;
#X connect 44 0 0 0;
#X restore 925 46 pd collect;
#X connect 5 0 6 0;
#X connect 8 0 17 1;
#X connect 8 0 18 0;
#X connect 10 0 17 0;
#X connect 10 0 20 0;
#X connect 10 0 23 0;
#X connect 10 0 26 0;
#X connect 15 0 16 0;
#X connect 17 0 9 0;
#X connect 18 0 17 0;
#X connect 19 0 20 1;
#X connect 19 0 21 0;
#X connect 20 0 12 0;
#X connect 21 0 20 0;
#X connect 22 0 23 1;
#X connect 22 0 24 0;
#X connect 23 0 13 0;
#X connect 24 0 23 0;
#X connect 25 0 26 1;
#X connect 25 0 27 0;
#X connect 26 0 14 0;
#X connect 27 0 26 0;
