#N canvas 2147 223 1146 510 10;
#X text 164 48 1 Set IP Address : network address;
#X text 164 68 2 Set Ports (sending and listening);
#X text 164 87 3 Set OSC Addresses (routing osc data;
#X text 155 26 Key Settings;
#N canvas 999 742 781 518 oscReceive 1;
#X obj 55 184 netreceive -u -b;
#X msg 78 143 listen 0;
#X text 152 143 stop listening;
#X text 64 58 packets from network;
#X text 173 177 UDP packets \, binary output, f 13;
#X obj 45 314 print;
#X obj 45 272 oscparse;
#X text 150 114 listen on port 8000;
#X obj 177 269 oscparse;
#X obj 177 293 list trim;
#X text 241 267 Parse the OSC message;
#X obj 177 319 route unity;
#X msg 66 115 listen 8000;
#X obj 66 84 loadbang;
#X obj 189 389 route speed;
#X obj 188 416 s speed;
#X obj 280 394 route collectable;
#X obj 279 448 s osccollect;
#X obj 281 419 % 5;
#X obj 406 398 route initialize;
#X obj 406 432 s initialize;
#X obj 524 395 route impact;
#X obj 524 429 s impact;
#X connect 0 0 6 0;
#X connect 0 0 8 0;
#X connect 1 0 0 0;
#X connect 6 0 5 0;
#X connect 8 0 9 0;
#X connect 9 0 11 0;
#X connect 11 0 14 0;
#X connect 11 0 16 0;
#X connect 11 0 19 0;
#X connect 11 0 21 0;
#X connect 12 0 0 0;
#X connect 13 0 12 0;
#X connect 14 0 15 0;
#X connect 16 0 18 0;
#X connect 18 0 17 0;
#X connect 19 0 20 0;
#X connect 21 0 22 0;
#X restore 43 116 pd oscReceive;
#X obj 47 36 tgl 15 0 empty empty empty 17 7 0 10 -262144 -1 -1 1 1
;
#X msg 47 61 \; pd dsp \$1;
#N canvas 2160 71 1083 664 music 1;
#X obj 52 888 osc~;
#X obj 56 832 mtof;
#X obj 55 1177 dac~;
#X floatatom 57 800 5 0 0 0 - - -;
#X obj 62 1010 *~;
#X obj 181 810 vsl 15 128 0 0.1 0 0 empty empty empty 0 -9 0 10 -262144
-1 -1 7843 1;
#X obj 56 944 *~;
#X obj 115 848 mtof;
#X floatatom 116 816 5 0 0 0 - - -;
#X obj 107 885 osc~;
#X obj 347 995 osc~;
#X obj 351 939 mtof;
#X obj 325 1243 dac~;
#X floatatom 357 901 5 0 0 0 - - -;
#X obj 351 1086 *~;
#X obj 492 908 vsl 15 128 0 0.1 0 0 empty empty empty 0 -9 0 10 -262144
-1 -1 7843 1;
#X obj 351 1051 *~;
#X obj 410 955 mtof;
#X floatatom 411 923 5 0 0 0 - - -;
#X obj 402 992 osc~;
#X obj 118 176 + 1;
#X obj 74 145 metro 250;
#X obj 99 342 % 10;
#X obj 100 370 select 0 1 2 3 4 5 6 7 8 9;
#X obj 61 1120 *~;
#X obj 74 112 tgl 15 0 empty empty empty 17 7 0 10 -262144 -1 -1 1
1;
#X obj 349 1194 *~;
#X msg 27 94 0;
#X obj 78 1096 vline~;
#X obj 747 1256;
#X msg 78 1070 1 20 \, 0 20 200;
#X obj 365 1174 vline~;
#X msg 365 1148 1 20 \, 0 20 200;
#X obj 814 980 osc~;
#X obj 818 924 mtof;
#X obj 798 1272 dac~;
#X floatatom 817 874 5 0 0 0 - - -;
#X obj 824 1102 *~;
#X obj 959 893 vsl 15 128 0 0.1 0 0 empty empty empty 0 -9 0 10 -262144
-1 -1 7843 1;
#X obj 877 940 mtof;
#X floatatom 878 908 5 0 0 0 - - -;
#X obj 822 1223 *~;
#X obj 837 1199 vline~;
#X msg 837 1178 1 20 \, 0 20 200;
#X obj 201 460 s bass;
#X obj 97 463 s chords;
#X obj 838 1158 r bass;
#X obj 78 1049 r chords;
#X obj 366 1126 r chords;
#X obj 75 231 s beatCount;
#X obj 98 320 r beatCount;
#X obj 702 713 r beatCount;
#X obj 701 736 % 20;
#X floatatom 76 201 5 0 0 0 - - -;
#X obj 76 175 float;
#X msg 660 833 44;
#X obj 707 785 select 0 3 6 9 12 15 18;
#X msg 712 835 49;
#X msg 752 833 49;
#X floatatom 703 759 5 0 0 0 - - -;
#X msg 791 829 51;
#X msg 832 833 56;
#X msg 312 803 68;
#X msg 347 803 72;
#X msg 382 804 73;
#X msg 413 804 75;
#X msg 451 806 80;
#X obj 336 761 select 0 1 2 3 4;
#X obj 343 721 r osccollect;
#X obj 625 797 loadbang;
#X obj 101 713 loadbang;
#X obj 434 852 loadbang;
#X msg 424 877 -10;
#X msg 140 773 87;
#X msg 65 760 68;
#X obj 859 991 phasor~;
#X obj 818 1036 +~;
#X obj 875 877 + 14;
#X obj 31 46 r initialize;
#X text 56 689 drone;
#X text 311 686 cyclical melody progressed by collecting objects;
#X obj 492 882 r musicVolume;
#X obj 181 786 r musicVolume;
#X obj 959 858 r musicVolume;
#X text 10 463 chord rhythm;
#X text 249 460 bass rhythm;
#X text 138 346 one bar of 5/4 in eigth notes;
#X text 21 28 Master timing controler;
#X text 144 169 apparently this is the only way to get an incrementing
counter without libraries??;
#X text 743 763 repeating bass pattern that lasts two bars;
#X text 683 685 bass;
#X text 839 1140 envelope;
#X text 367 1108 envelope;
#X text 77 1029 envelope;
#X obj 32 67 bng 15 250 50 0 empty empty empty 17 7 0 10 -262144 -1
-1;
#X obj 119 46 r stopAll;
#X msg 119 67 0;
#X obj 270 54 r speed;
#X obj 265 11 loadbang;
#X floatatom 331 89 5 0 0 0 - - -;
#X floatatom 178 93 5 0 0 0 - - -;
#X obj 230 103 *, f 4;
#X obj 178 119 -;
#X obj 230 80 bng 15 250 50 0 empty empty empty 17 7 0 10 -262144 -1
-1;
#X msg 178 72 300, f 4;
#X msg 330 69 50, f 4;
#X text 20 627 -----------------------------------------------------------
;
#X text 23 615 Voices below;
#X connect 0 0 6 0;
#X connect 1 0 0 0;
#X connect 3 0 1 0;
#X connect 4 0 24 0;
#X connect 5 0 4 1;
#X connect 6 0 4 0;
#X connect 7 0 9 0;
#X connect 8 0 7 0;
#X connect 9 0 6 1;
#X connect 10 0 16 0;
#X connect 11 0 10 0;
#X connect 13 0 11 0;
#X connect 14 0 26 0;
#X connect 15 0 14 1;
#X connect 16 0 14 0;
#X connect 17 0 19 0;
#X connect 18 0 17 0;
#X connect 19 0 16 1;
#X connect 20 0 54 1;
#X connect 21 0 54 0;
#X connect 22 0 23 0;
#X connect 23 0 45 0;
#X connect 23 0 44 0;
#X connect 23 1 45 0;
#X connect 23 2 45 0;
#X connect 23 3 45 0;
#X connect 23 3 44 0;
#X connect 23 4 45 0;
#X connect 23 5 45 0;
#X connect 23 6 45 0;
#X connect 23 6 44 0;
#X connect 23 7 45 0;
#X connect 23 8 45 0;
#X connect 23 8 44 0;
#X connect 23 9 45 0;
#X connect 24 0 2 0;
#X connect 24 0 2 1;
#X connect 25 0 21 0;
#X connect 26 0 12 0;
#X connect 26 0 12 1;
#X connect 27 0 25 0;
#X connect 27 0 54 0;
#X connect 28 0 24 1;
#X connect 30 0 28 0;
#X connect 31 0 26 1;
#X connect 32 0 31 0;
#X connect 33 0 76 0;
#X connect 34 0 33 0;
#X connect 36 0 34 0;
#X connect 36 0 77 0;
#X connect 37 0 41 0;
#X connect 38 0 37 1;
#X connect 39 0 75 0;
#X connect 40 0 39 0;
#X connect 41 0 35 0;
#X connect 41 0 35 1;
#X connect 42 0 41 1;
#X connect 43 0 42 0;
#X connect 46 0 43 0;
#X connect 47 0 30 0;
#X connect 48 0 32 0;
#X connect 50 0 22 0;
#X connect 51 0 52 0;
#X connect 52 0 59 0;
#X connect 53 0 49 0;
#X connect 54 0 20 0;
#X connect 54 0 53 0;
#X connect 55 0 36 0;
#X connect 56 0 55 0;
#X connect 56 1 57 0;
#X connect 56 2 58 0;
#X connect 56 3 60 0;
#X connect 56 6 61 0;
#X connect 57 0 36 0;
#X connect 58 0 36 0;
#X connect 59 0 56 0;
#X connect 60 0 36 0;
#X connect 61 0 36 0;
#X connect 62 0 13 0;
#X connect 63 0 13 0;
#X connect 64 0 13 0;
#X connect 65 0 13 0;
#X connect 66 0 13 0;
#X connect 67 0 62 0;
#X connect 67 1 63 0;
#X connect 67 2 64 0;
#X connect 67 3 65 0;
#X connect 67 4 66 0;
#X connect 68 0 67 0;
#X connect 69 0 55 0;
#X connect 70 0 73 0;
#X connect 70 0 74 0;
#X connect 71 0 62 0;
#X connect 71 0 72 0;
#X connect 72 0 18 0;
#X connect 73 0 8 0;
#X connect 74 0 3 0;
#X connect 75 0 76 1;
#X connect 76 0 37 0;
#X connect 77 0 40 0;
#X connect 78 0 94 0;
#X connect 81 0 15 0;
#X connect 82 0 5 0;
#X connect 83 0 38 0;
#X connect 94 0 27 0;
#X connect 94 0 25 0;
#X connect 95 0 96 0;
#X connect 96 0 25 0;
#X connect 97 0 103 0;
#X connect 97 0 101 0;
#X connect 98 0 104 0;
#X connect 98 0 105 0;
#X connect 99 0 101 1;
#X connect 100 0 102 0;
#X connect 101 0 102 1;
#X connect 102 0 21 1;
#X connect 103 0 101 0;
#X connect 103 0 100 0;
#X connect 104 0 100 0;
#X connect 105 0 99 0;
#X restore 603 47 pd music;
#X obj 622 79 vsl 15 128 0 1 0 0 empty empty empty 0 -9 0 10 -262144
-1 -1 1200 1;
#X obj 618 275 s musicVolume;
#X obj 528 117 vsl 15 128 0 1 0 0 empty empty empty 0 -9 0 10 -262144
-1 -1 8300 1;
#X text 495 92 master volume;
#X obj 719 275 s collisionVolume;
#X obj 837 274 s rollVolume;
#X obj 928 276 s collectVolume;
#X obj 44 154 bng 15 250 50 0 empty empty empty 17 7 0 10 -262144 -1
-1;
#X obj 44 174 s stopAll;
#X obj 619 249 *;
#X obj 620 223 bng 15 250 50 0 empty empty empty 17 7 0 10 -262144
-1 -1;
#X obj 723 77 vsl 15 128 0 1 0 0 empty empty empty 0 -9 0 10 -262144
-1 -1 0 1;
#X obj 720 247 *;
#X obj 721 221 bng 15 250 50 0 empty empty empty 17 7 0 10 -262144
-1 -1;
#X obj 840 77 vsl 15 128 0 1 0 0 empty empty empty 0 -9 0 10 -262144
-1 -1 0 1;
#X obj 837 247 *;
#X obj 838 221 bng 15 250 50 0 empty empty empty 17 7 0 10 -262144
-1 -1;
#X obj 932 76 vsl 15 128 0 1 0 0 empty empty empty 0 -9 0 10 -262144
-1 -1 0 1;
#X obj 929 246 *;
#X obj 930 220 bng 15 250 50 0 empty empty empty 17 7 0 10 -262144
-1 -1;
#X text 499 4 Volume settings;
#X connect 5 0 6 0;
#X connect 8 0 17 1;
#X connect 8 0 18 0;
#X connect 10 0 17 0;
#X connect 10 0 20 0;
#X connect 10 0 23 0;
#X connect 10 0 26 0;
#X connect 15 0 16 0;
#X connect 17 0 9 0;
#X connect 18 0 17 0;
#X connect 19 0 20 1;
#X connect 19 0 21 0;
#X connect 20 0 12 0;
#X connect 21 0 20 0;
#X connect 22 0 23 1;
#X connect 22 0 24 0;
#X connect 23 0 13 0;
#X connect 24 0 23 0;
#X connect 25 0 26 1;
#X connect 25 0 27 0;
#X connect 26 0 14 0;
#X connect 27 0 26 0;
